<svg width="1440" height="400" viewBox="0 0 1440 400" fill="none" xmlns="http://www.w3.org/2000/svg">
<g clip-path="url(#clip0_317_99156)">
<rect width="1440" height="400" fill="url(#paint0_linear_317_99156)"/>
<rect width="1440" height="400" fill="black"/>
<rect width="1440" height="400" fill="url(#paint1_linear_317_99156)" fill-opacity="0.4"/>
<g filter="url(#filter0_f_317_99156)">
<ellipse cx="689" cy="703" rx="470" ry="433" fill="url(#paint2_linear_317_99156)"/>
</g>
<g filter="url(#filter1_f_317_99156)">
<ellipse cx="720" cy="470" rx="176" ry="117" fill="url(#paint3_radial_317_99156)"/>
</g>
<g filter="url(#filter2_f_317_99156)">
<ellipse cx="720.5" cy="-154.5" rx="289.5" ry="239.5" fill="url(#paint4_linear_317_99156)"/>
</g>
<g filter="url(#filter3_f_317_99156)">
<ellipse cx="720" cy="-63" rx="152" ry="117" fill="url(#paint5_radial_317_99156)"/>
</g>
<path fill-rule="evenodd" clip-rule="evenodd" d="M481.151 260.035H481.189H959.492H959.53L959.566 260.046L1437.87 410.23L1439.43 410.718H1437.8H2.88783H1.25711L2.81293 410.23L481.114 260.046L481.151 260.035ZM481.227 260.535L469.905 264.09H507.013L516.593 260.535H481.227ZM518.03 260.535L508.45 264.09H545.783L553.622 260.535H518.03ZM505.665 264.59H468.312L455.491 268.616H494.816L505.665 264.59ZM496.254 268.616L507.102 264.59H544.681L535.804 268.616H496.254ZM493.469 269.116H453.899L439.326 273.691H481.138L493.469 269.116ZM482.575 273.691L494.906 269.116H534.702L524.612 273.691H482.575ZM479.791 274.191H437.733L421.117 279.409H465.731L479.791 274.191ZM467.168 279.409L481.228 274.191H523.51L512.006 279.409H467.168ZM464.384 279.909H419.525L400.358 285.927H448.166L464.384 279.909ZM449.603 285.927L465.821 279.909H510.904L497.634 285.927H449.603ZM446.819 286.427H398.766L376.54 293.406H428.012L446.819 286.427ZM429.449 293.406L448.256 286.427H496.532L481.144 293.406H429.449ZM426.665 293.906H374.948L348.893 302.087H404.618L426.665 293.906ZM406.055 302.087L428.102 293.906H480.042L462.003 302.087H406.055ZM403.271 302.587H347.3L316.466 312.269H377.18L403.271 302.587ZM378.617 312.269L404.708 302.587H460.901L439.553 312.269H378.617ZM375.833 312.769H314.873L277.818 324.404H344.479L375.833 312.769ZM345.916 324.404L377.27 312.769H438.451L412.796 324.404H345.916ZM343.131 324.904H276.226L231.071 339.082H304.923L343.131 324.904ZM306.36 339.082L344.568 324.904H411.694L380.432 339.082H306.36ZM303.576 339.582H229.478L173.327 357.214H256.063L303.576 339.582ZM257.5 357.214L305.013 339.582H379.329L340.454 357.214H257.5ZM254.715 357.714H171.734L100.178 380.182H194.168L254.715 357.714ZM195.605 380.182L256.153 357.714H339.352L289.811 380.182H195.605ZM192.82 380.682H98.5854L4.51856 410.218H113.226L192.82 380.682ZM114.663 410.218L194.258 380.682H288.709L223.584 410.218H114.663ZM545.891 264.59L537.015 268.616H576.788L583.692 264.59H545.891ZM535.912 269.116L525.823 273.691H568.083L575.93 269.116H535.912ZM524.72 274.191L513.217 279.409H558.278L567.225 274.191H524.72ZM512.114 279.909L498.845 285.927H547.1L557.421 279.909H512.114ZM497.742 286.427L482.355 293.406H534.274L546.242 286.427H497.742ZM481.252 293.906L463.214 302.087H519.387L533.417 293.906H481.252ZM462.111 302.587L440.764 312.269H501.926L518.529 302.587H462.111ZM439.661 312.769L414.007 324.404H481.115L501.068 312.769H439.661ZM412.905 324.904L381.642 339.082H455.942L480.257 324.904H412.905ZM380.54 339.582L341.665 357.214H424.848L455.085 339.582H380.54ZM340.562 357.714L291.022 380.182H385.459L423.991 357.714H340.562ZM289.919 380.682L224.794 410.218H333.949L384.602 380.682H289.919ZM554.833 260.535L546.994 264.09H584.549L590.646 260.535H554.833ZM591.639 260.535L585.542 264.09H623.295L627.65 260.535H591.639ZM577.78 268.616L584.684 264.59H622.683L617.752 268.616H577.78ZM569.076 273.691L576.923 269.116H617.139L611.534 273.691H569.076ZM559.271 279.409L568.218 274.191H610.922L604.532 279.409H559.271ZM548.093 285.927L558.413 279.909H603.919L596.548 285.927H548.093ZM535.267 293.406L547.235 286.427H595.935L587.387 293.406H535.267ZM520.379 302.087L534.409 293.906H586.775L576.754 302.087H520.379ZM502.918 312.269L519.522 302.587H576.142L564.283 312.269H502.918ZM482.107 324.404L502.061 312.769H563.67L549.419 324.404H482.107ZM456.935 339.082L481.25 324.904H548.807L531.44 339.082H456.935ZM425.841 357.214L456.077 339.582H530.828L509.232 357.214H425.841ZM386.452 380.182L424.984 357.714H508.619L481.099 380.182H386.452ZM334.942 410.218L385.595 380.682H480.486L444.309 410.218H334.942ZM623.473 264.59L618.542 268.616H658.712L661.671 264.59H623.473ZM617.93 269.116L612.325 273.691H654.982L658.345 269.116H617.93ZM611.713 274.191L605.322 279.409H650.781L654.615 274.191H611.713ZM604.71 279.909L597.338 285.927H645.99L650.413 279.909H604.71ZM596.726 286.427L588.178 293.406H640.494L645.623 286.427H596.726ZM587.565 293.906L577.545 302.087H634.115L640.127 293.906H587.565ZM576.932 302.587L565.073 312.269H626.632L633.747 302.587H576.932ZM564.461 312.769L550.21 324.404H617.714L626.265 312.769H564.461ZM549.597 324.904L532.231 339.082H606.928L617.347 324.904H549.597ZM531.618 339.582L510.022 357.214H593.603L606.56 339.582H531.618ZM509.41 357.714L481.889 380.182H576.724L593.236 357.714H509.41ZM481.277 380.682L445.099 410.218H554.651L576.357 380.682H481.277ZM628.44 260.535L624.086 264.09H662.038L664.651 260.535H628.44ZM665.271 260.535L662.659 264.09H700.751L701.622 260.535H665.271ZM659.333 268.616L662.291 264.59H700.628L699.642 268.616H659.333ZM655.603 273.691L658.965 269.116H699.519L698.398 273.691H655.603ZM651.401 279.409L655.235 274.191H698.276L696.998 279.409H651.401ZM646.611 285.927L651.034 279.909H696.875L695.401 285.927H646.611ZM641.115 293.406L646.244 286.427H695.278L693.569 293.406H641.115ZM634.735 302.087L640.748 293.906H693.446L691.442 302.087H634.735ZM627.253 312.269L634.368 302.587H691.319L688.947 312.269H627.253ZM618.335 324.404L626.885 312.769H688.825L685.974 324.404H618.335ZM607.548 339.082L617.968 324.904H685.852L682.378 339.082H607.548ZM594.224 357.214L607.181 339.582H682.256L677.936 357.214H594.224ZM577.345 380.182L593.856 357.714H677.814L672.309 380.182H577.345ZM555.271 410.218L576.977 380.682H672.187L664.951 410.218H555.271ZM701.143 264.59L700.157 268.616H740.517L739.531 264.59H701.143ZM700.034 269.116L698.913 273.691H741.761L740.64 269.116H700.034ZM698.791 274.191L697.513 279.409H743.161L741.883 274.191H698.791ZM697.39 279.909L695.916 285.927H744.758L743.284 279.909H697.39ZM695.793 286.427L694.083 293.406H746.591L744.881 286.427H695.793ZM693.961 293.906L691.957 302.087H748.717L746.713 293.906H693.961ZM691.834 302.587L689.462 312.269H751.212L748.84 302.587H691.834ZM689.34 312.769L686.489 324.404H754.185L751.334 312.769H689.34ZM686.367 324.904L682.893 339.082H757.781L754.307 324.904H686.367ZM682.771 339.582L678.451 357.214H762.223L757.903 339.582H682.771ZM678.328 357.714L672.824 380.182H767.85L762.345 357.714H678.328ZM672.701 380.682L665.465 410.218H775.209L767.972 380.682H672.701ZM702.137 260.535L701.266 264.09H739.408L738.537 260.535H702.137ZM739.052 260.535L739.923 264.09H778.014L775.401 260.535H739.052ZM741.032 268.616L740.046 264.59H778.381L781.34 268.616H741.032ZM742.275 273.691L741.154 269.116H781.708L785.071 273.691H742.275ZM743.676 279.409L742.398 274.191H785.438L789.273 279.409H743.676ZM745.273 285.927L743.799 279.909H789.64L794.064 285.927H745.273ZM747.105 293.406L745.396 286.427H794.431L799.56 293.406H747.105ZM749.232 302.087L747.228 293.906H799.928L805.941 302.087H749.232ZM751.727 312.269L749.355 302.587H806.308L813.424 312.269H751.727ZM754.7 324.404L751.849 312.769H813.792L822.343 324.404H754.7ZM758.296 339.082L754.822 324.904H822.71L833.131 339.082H758.296ZM762.738 357.214L758.418 339.582H833.499L846.457 357.214H762.738ZM768.365 380.182L762.86 357.714H846.825L863.338 380.182H768.365ZM775.723 410.218L768.487 380.682H863.706L885.414 410.218H775.723ZM779.002 264.59L781.961 268.616H822.13L817.199 264.59H779.002ZM782.328 269.116L785.691 273.691H828.348L822.743 269.116H782.328ZM786.059 274.191L789.893 279.409H835.351L828.96 274.191H786.059ZM790.261 279.909L794.684 285.927H843.336L835.964 279.909H790.261ZM795.052 286.427L800.181 293.406H852.497L843.948 286.427H795.052ZM800.548 293.906L806.561 302.087H863.131L853.109 293.906H800.548ZM806.929 302.587L814.045 312.269H875.603L863.743 302.587H806.929ZM814.412 312.769L822.963 324.404H890.468L876.215 312.769H814.412ZM823.331 324.904L833.752 339.082H908.448L891.08 324.904H823.331ZM834.119 339.582L847.078 357.214H930.658L909.061 339.582H834.119ZM847.445 357.714L863.959 380.182H958.793L931.27 357.714H847.445ZM864.326 380.682L886.035 410.218H995.586L959.405 380.682H864.326ZM776.021 260.535L778.634 264.09H816.586L812.231 260.535H776.021ZM813.022 260.535L817.377 264.09H855.142L849.046 260.535H813.022ZM822.921 268.616L817.989 264.59H856L862.904 268.616H822.921ZM829.138 273.691L823.533 269.116H863.761L871.608 273.691H829.138ZM836.142 279.409L829.751 274.191H872.465L881.412 279.409H836.142ZM844.126 285.927L836.754 279.909H882.269L892.59 285.927H844.126ZM853.287 293.406L844.739 286.427H893.447L905.415 293.406H853.287ZM863.921 302.087L853.9 293.906H906.272L920.301 302.087H863.921ZM876.393 312.269L864.534 302.587H921.159L937.762 312.269H876.393ZM891.258 324.404L877.006 312.769H938.619L958.571 324.404H891.258ZM909.239 339.082L891.871 324.904H959.429L983.743 339.082H909.239ZM931.449 357.214L909.851 339.582H984.6L1014.83 357.214H931.449ZM959.583 380.182L932.061 357.714H1015.69L1054.22 380.182H959.583ZM996.376 410.218L960.196 380.682H1055.08L1105.73 410.218H996.376ZM856.992 264.59L863.896 268.616H903.669L894.792 264.59H856.992ZM864.754 269.116L872.6 273.691H914.86L904.771 269.116H864.754ZM873.458 274.191L882.405 279.409H927.466L915.963 274.191H873.458ZM883.262 279.909L893.582 285.927H941.838L928.569 279.909H883.262ZM894.44 286.427L906.407 293.406H958.328L942.94 286.427H894.44ZM907.265 293.906L921.294 302.087H977.468L959.43 293.906H907.265ZM922.151 302.587L938.754 312.269H999.918L978.571 302.587H922.151ZM939.612 312.769L959.564 324.404H1026.67L1001.02 312.769H939.612ZM960.421 324.904L984.735 339.082H1059.04L1027.78 324.904H960.421ZM985.593 339.582L1015.83 357.214H1099.01L1060.14 339.582H985.593ZM1016.68 357.714L1055.21 380.182H1149.66L1100.12 357.714H1016.68ZM1056.07 380.682L1106.72 410.218H1215.88L1150.76 380.682H1056.07ZM850.038 260.535L856.135 264.09H893.69L885.851 260.535H850.038ZM887.062 260.535L894.901 264.09H932.235L922.654 260.535H887.062ZM904.88 268.616L896.003 264.59H933.583L944.432 268.616H904.88ZM916.071 273.691L905.982 269.116H945.779L958.11 273.691H916.071ZM928.677 279.409L917.173 274.191H959.458L973.517 279.409H928.677ZM943.048 285.927L929.779 279.909H974.865L991.083 285.927H943.048ZM959.538 293.406L944.151 286.427H992.43L1011.24 293.406H959.538ZM978.679 302.087L960.641 293.906H1012.58L1034.63 302.087H978.679ZM1001.13 312.269L979.781 302.587H1035.98L1062.07 312.269H1001.13ZM1027.88 324.404L1002.23 312.769H1063.42L1094.77 324.404H1027.88ZM1060.25 339.082L1028.99 324.904H1096.12L1134.33 339.082H1060.25ZM1100.23 357.214L1061.35 339.582H1135.67L1183.19 357.214H1100.23ZM1150.87 380.182L1101.33 357.714H1184.54L1245.08 380.182H1150.87ZM1217.09 410.218L1151.97 380.682H1246.43L1326.03 410.218H1217.09ZM935.02 264.59L945.869 268.616H985.19L972.368 264.59H935.02ZM947.216 269.116L959.547 273.691H1001.36L986.782 269.116H947.216ZM960.895 274.191L974.954 279.409H1019.56L1002.95 274.191H960.895ZM976.302 279.909L992.52 285.927H1040.32L1021.16 279.909H976.302ZM993.867 286.427L1012.67 293.406H1064.14L1041.92 286.427H993.867ZM1014.02 293.906L1036.07 302.087H1091.79L1065.73 293.906H1014.02ZM1037.42 302.587L1063.51 312.269H1124.22L1093.38 302.587H1037.42ZM1064.85 312.769L1096.21 324.404H1162.86L1125.81 312.769H1064.85ZM1097.56 324.904L1135.76 339.082H1209.61L1164.46 324.904H1097.56ZM1137.11 339.582L1184.63 357.214H1267.36L1211.2 339.582H1137.11ZM1185.97 357.714L1246.52 380.182H1340.51L1268.95 357.714H1185.97ZM1247.87 380.682L1327.46 410.218H1436.17L1342.1 380.682H1247.87ZM924.092 260.535L933.672 264.09H970.776L959.453 260.535H924.092Z" fill="url(#paint6_radial_317_99156)" style="mix-blend-mode:hard-light"/>
<path opacity="0.5" d="M1437.8 410.468L959.491 260.285" stroke="url(#paint7_angular_317_99156)" stroke-width="0.5" stroke-miterlimit="10"/>
<path d="M347.268 302.337H1093.42" stroke="url(#paint8_angular_317_99156)" stroke-width="0.5" stroke-miterlimit="10"/>
<path d="M885.908 410.468L775.527 260.285" stroke="url(#paint9_angular_317_99156)" stroke-width="0.5" stroke-miterlimit="10"/>
<path opacity="0.5" d="M2.8877 410.468L481.189 260.285" stroke="url(#paint10_angular_317_99156)" stroke-width="0.5" stroke-miterlimit="10"/>
<path d="M171.695 357.464H1268.98" stroke="url(#paint11_angular_317_99156)" stroke-width="0.5" stroke-miterlimit="10"/>
<path d="M444.397 410.468L628.351 260.285" stroke="url(#paint12_angular_317_99156)" stroke-width="0.5" stroke-miterlimit="10"/>
<path fill-rule="evenodd" clip-rule="evenodd" d="M481.151 140.718H481.189H959.492H959.53L959.566 140.707L1437.87 -9.47696L1439.43 -9.96547H1437.8H2.88783H1.25711L2.81293 -9.47696L481.114 140.707L481.151 140.718ZM481.227 140.218L469.905 136.663H507.013L516.593 140.218H481.227ZM518.03 140.218L508.45 136.663H545.783L553.622 140.218H518.03ZM505.665 136.163H468.312L455.491 132.137H494.816L505.665 136.163ZM496.254 132.137L507.102 136.163H544.681L535.804 132.137H496.254ZM493.469 131.637H453.899L439.326 127.061H481.138L493.469 131.637ZM482.575 127.061L494.906 131.637H534.702L524.612 127.061H482.575ZM479.791 126.561H437.733L421.117 121.344H465.731L479.791 126.561ZM467.168 121.344L481.228 126.561H523.51L512.006 121.344H467.168ZM464.384 120.844H419.525L400.358 114.826H448.166L464.384 120.844ZM449.603 114.826L465.821 120.844H510.904L497.634 114.826H449.603ZM446.819 114.326H398.766L376.54 107.347H428.012L446.819 114.326ZM429.449 107.347L448.256 114.326H496.532L481.144 107.347H429.449ZM426.665 106.847H374.948L348.893 98.6659H404.618L426.665 106.847ZM406.055 98.6659L428.102 106.847H480.042L462.003 98.6659H406.055ZM403.271 98.1659H347.3L316.466 88.4841H377.18L403.271 98.1659ZM378.617 88.4841L404.708 98.1659H460.901L439.553 88.4841H378.617ZM375.833 87.9841H314.873L277.818 76.349H344.479L375.833 87.9841ZM345.916 76.349L377.27 87.9841H438.451L412.796 76.349H345.916ZM343.131 75.849H276.226L231.071 61.6705H304.923L343.131 75.849ZM306.36 61.6705L344.568 75.849H411.694L380.432 61.6705H306.36ZM303.576 61.1705H229.478L173.327 43.5392H256.063L303.576 61.1705ZM257.5 43.5392L305.013 61.1705H379.329L340.454 43.5392H257.5ZM254.715 43.0392H171.734L100.178 20.5709H194.168L254.715 43.0392ZM195.605 20.5709L256.153 43.0392H339.352L289.811 20.5709H195.605ZM192.82 20.0709H98.5854L4.51856 -9.46547H113.226L192.82 20.0709ZM114.663 -9.46547L194.258 20.0709H288.709L223.584 -9.46547H114.663ZM545.891 136.163L537.015 132.137H576.788L583.692 136.163H545.891ZM535.912 131.637L525.823 127.061H568.083L575.93 131.637H535.912ZM524.72 126.561L513.217 121.344H558.278L567.225 126.561H524.72ZM512.114 120.844L498.845 114.826H547.1L557.421 120.844H512.114ZM497.742 114.326L482.355 107.347H534.274L546.242 114.326H497.742ZM481.252 106.847L463.214 98.6659H519.387L533.417 106.847H481.252ZM462.111 98.1659L440.764 88.4841H501.926L518.529 98.1659H462.111ZM439.661 87.9841L414.007 76.349H481.115L501.068 87.9841H439.661ZM412.905 75.849L381.642 61.6705H455.942L480.257 75.849H412.905ZM380.54 61.1705L341.665 43.5392H424.848L455.085 61.1705H380.54ZM340.562 43.0392L291.022 20.5709H385.459L423.991 43.0392H340.562ZM289.919 20.0709L224.794 -9.46547H333.949L384.602 20.0709H289.919ZM554.833 140.218L546.994 136.663H584.549L590.646 140.218H554.833ZM591.639 140.218L585.542 136.663H623.295L627.65 140.218H591.639ZM577.78 132.137L584.684 136.163H622.683L617.752 132.137H577.78ZM569.076 127.061L576.923 131.637H617.139L611.534 127.061H569.076ZM559.271 121.344L568.218 126.561H610.922L604.532 121.344H559.271ZM548.093 114.826L558.413 120.844H603.919L596.548 114.826H548.093ZM535.267 107.347L547.235 114.326H595.935L587.387 107.347H535.267ZM520.379 98.6659L534.409 106.847H586.775L576.754 98.6659H520.379ZM502.918 88.4841L519.522 98.1659H576.142L564.283 88.4841H502.918ZM482.107 76.349L502.061 87.9841H563.67L549.419 76.349H482.107ZM456.935 61.6705L481.25 75.849H548.807L531.44 61.6705H456.935ZM425.841 43.5392L456.077 61.1705H530.828L509.232 43.5392H425.841ZM386.452 20.5709L424.984 43.0392H508.619L481.099 20.5709H386.452ZM334.942 -9.46547L385.595 20.0709H480.486L444.309 -9.46547H334.942ZM623.473 136.163L618.542 132.137H658.712L661.671 136.163H623.473ZM617.93 131.637L612.325 127.061H654.982L658.345 131.637H617.93ZM611.713 126.561L605.322 121.344H650.781L654.615 126.561H611.713ZM604.71 120.844L597.338 114.826H645.99L650.413 120.844H604.71ZM596.726 114.326L588.178 107.347H640.494L645.623 114.326H596.726ZM587.565 106.847L577.545 98.6659H634.115L640.127 106.847H587.565ZM576.932 98.1659L565.073 88.4841H626.632L633.747 98.1659H576.932ZM564.461 87.9841L550.21 76.349H617.714L626.265 87.9841H564.461ZM549.597 75.849L532.231 61.6705H606.928L617.347 75.849H549.597ZM531.618 61.1705L510.022 43.5392H593.603L606.56 61.1705H531.618ZM509.41 43.0392L481.889 20.5709H576.724L593.236 43.0392H509.41ZM481.277 20.0709L445.099 -9.46547H554.651L576.357 20.0709H481.277ZM628.44 140.218L624.086 136.663H662.038L664.651 140.218H628.44ZM665.271 140.218L662.659 136.663H700.751L701.622 140.218H665.271ZM659.333 132.137L662.291 136.163H700.628L699.642 132.137H659.333ZM655.603 127.061L658.965 131.637H699.519L698.398 127.061H655.603ZM651.401 121.344L655.235 126.561H698.276L696.998 121.344H651.401ZM646.611 114.826L651.034 120.844H696.875L695.401 114.826H646.611ZM641.115 107.347L646.244 114.326H695.278L693.569 107.347H641.115ZM634.735 98.6659L640.748 106.847H693.446L691.442 98.6659H634.735ZM627.253 88.4841L634.368 98.1659H691.319L688.947 88.4841H627.253ZM618.335 76.349L626.885 87.9841H688.825L685.974 76.349H618.335ZM607.548 61.6705L617.968 75.849H685.852L682.378 61.6705H607.548ZM594.224 43.5392L607.181 61.1705H682.256L677.936 43.5392H594.224ZM577.345 20.5709L593.856 43.0392H677.814L672.309 20.5709H577.345ZM555.271 -9.46547L576.977 20.0709H672.187L664.951 -9.46547H555.271ZM701.143 136.163L700.157 132.137H740.517L739.531 136.163H701.143ZM700.034 131.637L698.913 127.061H741.761L740.64 131.637H700.034ZM698.791 126.561L697.513 121.344H743.161L741.883 126.561H698.791ZM697.39 120.844L695.916 114.826H744.758L743.284 120.844H697.39ZM695.793 114.326L694.083 107.347H746.591L744.881 114.326H695.793ZM693.961 106.847L691.957 98.6659H748.717L746.713 106.847H693.961ZM691.834 98.1659L689.462 88.4841H751.212L748.84 98.1659H691.834ZM689.34 87.9841L686.489 76.349H754.185L751.334 87.9841H689.34ZM686.367 75.849L682.893 61.6705H757.781L754.307 75.849H686.367ZM682.771 61.1705L678.451 43.5392H762.223L757.903 61.1705H682.771ZM678.328 43.0392L672.824 20.5709H767.85L762.345 43.0392H678.328ZM672.701 20.0709L665.465 -9.46547H775.209L767.972 20.0709H672.701ZM702.137 140.218L701.266 136.663H739.408L738.537 140.218H702.137ZM739.052 140.218L739.923 136.663H778.014L775.401 140.218H739.052ZM741.032 132.137L740.046 136.163H778.381L781.34 132.137H741.032ZM742.275 127.061L741.154 131.637H781.708L785.071 127.061H742.275ZM743.676 121.344L742.398 126.561H785.438L789.273 121.344H743.676ZM745.273 114.826L743.799 120.844H789.64L794.064 114.826H745.273ZM747.105 107.347L745.396 114.326H794.431L799.56 107.347H747.105ZM749.232 98.6659L747.228 106.847H799.928L805.941 98.6659H749.232ZM751.727 88.4841L749.355 98.1659H806.308L813.424 88.4841H751.727ZM754.7 76.349L751.849 87.9841H813.792L822.343 76.349H754.7ZM758.296 61.6705L754.822 75.849H822.71L833.131 61.6705H758.296ZM762.738 43.5392L758.418 61.1705H833.499L846.457 43.5392H762.738ZM768.365 20.5709L762.86 43.0392H846.825L863.338 20.5709H768.365ZM775.723 -9.46547L768.487 20.0709H863.706L885.414 -9.46547H775.723ZM779.002 136.163L781.961 132.137H822.13L817.199 136.163H779.002ZM782.328 131.637L785.691 127.061H828.348L822.743 131.637H782.328ZM786.059 126.561L789.893 121.344H835.351L828.96 126.561H786.059ZM790.261 120.844L794.684 114.826H843.336L835.964 120.844H790.261ZM795.052 114.326L800.181 107.347H852.497L843.948 114.326H795.052ZM800.548 106.847L806.561 98.6659H863.131L853.109 106.847H800.548ZM806.929 98.1659L814.045 88.4841H875.603L863.743 98.1659H806.929ZM814.412 87.9841L822.963 76.349H890.468L876.215 87.9841H814.412ZM823.331 75.849L833.752 61.6705H908.448L891.08 75.849H823.331ZM834.119 61.1705L847.078 43.5392H930.658L909.061 61.1705H834.119ZM847.445 43.0392L863.959 20.5709H958.793L931.27 43.0392H847.445ZM864.326 20.0709L886.035 -9.46547H995.586L959.405 20.0709H864.326ZM776.021 140.218L778.634 136.663H816.586L812.231 140.218H776.021ZM813.022 140.218L817.377 136.663H855.142L849.046 140.218H813.022ZM822.921 132.137L817.989 136.163H856L862.904 132.137H822.921ZM829.138 127.061L823.533 131.637H863.761L871.608 127.061H829.138ZM836.142 121.344L829.751 126.561H872.465L881.412 121.344H836.142ZM844.126 114.826L836.754 120.844H882.269L892.59 114.826H844.126ZM853.287 107.347L844.739 114.326H893.447L905.415 107.347H853.287ZM863.921 98.6659L853.9 106.847H906.272L920.301 98.6659H863.921ZM876.393 88.4841L864.534 98.1659H921.159L937.762 88.4841H876.393ZM891.258 76.349L877.006 87.9841H938.619L958.571 76.349H891.258ZM909.239 61.6705L891.871 75.849H959.429L983.743 61.6705H909.239ZM931.449 43.5392L909.851 61.1705H984.6L1014.83 43.5392H931.449ZM959.583 20.5709L932.061 43.0392H1015.69L1054.22 20.5709H959.583ZM996.376 -9.46547L960.196 20.0709H1055.08L1105.73 -9.46547H996.376ZM856.992 136.163L863.896 132.137H903.669L894.792 136.163H856.992ZM864.754 131.637L872.6 127.061H914.86L904.771 131.637H864.754ZM873.458 126.561L882.405 121.344H927.466L915.963 126.561H873.458ZM883.262 120.844L893.582 114.826H941.838L928.569 120.844H883.262ZM894.44 114.326L906.407 107.347H958.328L942.94 114.326H894.44ZM907.265 106.847L921.294 98.6659H977.468L959.43 106.847H907.265ZM922.151 98.1659L938.754 88.4841H999.918L978.571 98.1659H922.151ZM939.612 87.9841L959.564 76.349H1026.67L1001.02 87.9841H939.612ZM960.421 75.849L984.735 61.6705H1059.04L1027.78 75.849H960.421ZM985.593 61.1705L1015.83 43.5392H1099.01L1060.14 61.1705H985.593ZM1016.68 43.0392L1055.21 20.5709H1149.66L1100.12 43.0392H1016.68ZM1056.07 20.0709L1106.72 -9.46547H1215.88L1150.76 20.0709H1056.07ZM850.038 140.218L856.135 136.663H893.69L885.851 140.218H850.038ZM887.062 140.218L894.901 136.663H932.235L922.654 140.218H887.062ZM904.88 132.137L896.003 136.163H933.583L944.432 132.137H904.88ZM916.071 127.061L905.982 131.637H945.779L958.11 127.061H916.071ZM928.677 121.344L917.173 126.561H959.458L973.517 121.344H928.677ZM943.048 114.826L929.779 120.844H974.865L991.083 114.826H943.048ZM959.538 107.347L944.151 114.326H992.43L1011.24 107.347H959.538ZM978.679 98.6659L960.641 106.847H1012.58L1034.63 98.6659H978.679ZM1001.13 88.4841L979.781 98.1659H1035.98L1062.07 88.4841H1001.13ZM1027.88 76.349L1002.23 87.9841H1063.42L1094.77 76.349H1027.88ZM1060.25 61.6705L1028.99 75.849H1096.12L1134.33 61.6705H1060.25ZM1100.23 43.5392L1061.35 61.1705H1135.67L1183.19 43.5392H1100.23ZM1150.87 20.5709L1101.33 43.0392H1184.54L1245.08 20.5709H1150.87ZM1217.09 -9.46547L1151.97 20.0709H1246.43L1326.03 -9.46547H1217.09ZM935.02 136.163L945.869 132.137H985.19L972.368 136.163H935.02ZM947.216 131.637L959.547 127.061H1001.36L986.782 131.637H947.216ZM960.895 126.561L974.954 121.344H1019.56L1002.95 126.561H960.895ZM976.302 120.844L992.52 114.826H1040.32L1021.16 120.844H976.302ZM993.867 114.326L1012.67 107.347H1064.14L1041.92 114.326H993.867ZM1014.02 106.847L1036.07 98.6659H1091.79L1065.73 106.847H1014.02ZM1037.42 98.1659L1063.51 88.4841H1124.22L1093.38 98.1659H1037.42ZM1064.85 87.9841L1096.21 76.349H1162.86L1125.81 87.9841H1064.85ZM1097.56 75.849L1135.76 61.6705H1209.61L1164.46 75.849H1097.56ZM1137.11 61.1705L1184.63 43.5392H1267.36L1211.2 61.1705H1137.11ZM1185.97 43.0392L1246.52 20.5709H1340.51L1268.95 43.0392H1185.97ZM1247.87 20.0709L1327.46 -9.46547H1436.17L1342.1 20.0709H1247.87ZM924.092 140.218L933.672 136.663H970.776L959.453 140.218H924.092Z" fill="url(#paint13_radial_317_99156)" style="mix-blend-mode:hard-light"/>
<path d="M171.695 43.2892H1268.98" stroke="url(#paint14_angular_317_99156)" stroke-width="0.5" stroke-miterlimit="10"/>
<path opacity="0.7" d="M996.287 -9.71549L812.32 140.468" stroke="url(#paint15_angular_317_99156)" stroke-width="0.5" stroke-miterlimit="10"/>
<path d="M554.777 -9.71549L665.145 140.468" stroke="url(#paint16_angular_317_99156)" stroke-width="0.5" stroke-miterlimit="10"/>
<path opacity="0.5" d="M334.017 -9.71549L591.571 140.468" stroke="url(#paint17_angular_317_99156)" stroke-width="0.5" stroke-miterlimit="10"/>
<path d="M487.404 158.091H495.143L505.506 183.386H505.915L516.279 158.091H524.018V193H517.95V169.017H517.626L507.978 192.898H503.444L493.796 168.966H493.472V193H487.404V158.091ZM530.631 193V166.818H536.802V193H530.631ZM533.734 163.102C532.756 163.102 531.915 162.778 531.211 162.131C530.506 161.472 530.154 160.682 530.154 159.761C530.154 158.83 530.506 158.04 531.211 157.392C531.915 156.733 532.756 156.403 533.734 156.403C534.722 156.403 535.563 156.733 536.256 157.392C536.961 158.04 537.313 158.83 537.313 159.761C537.313 160.682 536.961 161.472 536.256 162.131C535.563 162.778 534.722 163.102 533.734 163.102ZM549.317 177.659V193H543.147V166.818H549.045V171.267H549.352C549.954 169.801 550.914 168.636 552.232 167.773C553.562 166.909 555.204 166.477 557.158 166.477C558.965 166.477 560.539 166.864 561.88 167.636C563.232 168.409 564.278 169.528 565.016 170.994C565.766 172.46 566.136 174.239 566.124 176.33V193H559.954V177.284C559.954 175.534 559.499 174.165 558.59 173.176C557.692 172.187 556.448 171.693 554.857 171.693C553.778 171.693 552.817 171.932 551.977 172.409C551.147 172.875 550.494 173.551 550.016 174.438C549.55 175.324 549.317 176.398 549.317 177.659ZM585.471 166.818V171.591H570.42V166.818H585.471ZM574.136 160.545H580.306V185.125C580.306 185.955 580.431 186.591 580.681 187.034C580.942 187.466 581.283 187.761 581.704 187.92C582.124 188.08 582.59 188.159 583.102 188.159C583.488 188.159 583.84 188.131 584.158 188.074C584.488 188.017 584.738 187.966 584.908 187.92L585.948 192.744C585.619 192.858 585.147 192.983 584.533 193.119C583.931 193.256 583.192 193.335 582.317 193.358C580.772 193.403 579.38 193.17 578.141 192.659C576.903 192.136 575.92 191.33 575.192 190.239C574.477 189.148 574.124 187.784 574.136 186.148V160.545ZM614.64 193H602.81V158.091H614.879C618.344 158.091 621.322 158.79 623.81 160.188C626.31 161.574 628.231 163.568 629.572 166.17C630.913 168.773 631.583 171.886 631.583 175.511C631.583 179.148 630.907 182.273 629.555 184.886C628.214 187.5 626.276 189.506 623.742 190.903C621.219 192.301 618.185 193 614.64 193ZM609.134 187.528H614.333C616.765 187.528 618.793 187.085 620.418 186.199C622.043 185.301 623.265 183.966 624.083 182.193C624.901 180.409 625.31 178.182 625.31 175.511C625.31 172.841 624.901 170.625 624.083 168.864C623.265 167.091 622.055 165.767 620.452 164.892C618.862 164.006 616.884 163.562 614.521 163.562H609.134V187.528ZM648.739 193.511C646.183 193.511 643.967 192.949 642.092 191.824C640.217 190.699 638.762 189.125 637.728 187.102C636.705 185.08 636.194 182.716 636.194 180.011C636.194 177.307 636.705 174.937 637.728 172.903C638.762 170.869 640.217 169.29 642.092 168.165C643.967 167.04 646.183 166.477 648.739 166.477C651.296 166.477 653.512 167.04 655.387 168.165C657.262 169.29 658.711 170.869 659.734 172.903C660.768 174.937 661.285 177.307 661.285 180.011C661.285 182.716 660.768 185.08 659.734 187.102C658.711 189.125 657.262 190.699 655.387 191.824C653.512 192.949 651.296 193.511 648.739 193.511ZM648.773 188.568C650.16 188.568 651.319 188.187 652.251 187.426C653.183 186.653 653.876 185.619 654.33 184.324C654.796 183.028 655.029 181.585 655.029 179.994C655.029 178.392 654.796 176.943 654.33 175.648C653.876 174.341 653.183 173.301 652.251 172.528C651.319 171.756 650.16 171.369 648.773 171.369C647.353 171.369 646.171 171.756 645.228 172.528C644.296 173.301 643.597 174.341 643.131 175.648C642.677 176.943 642.45 178.392 642.45 179.994C642.45 181.585 642.677 183.028 643.131 184.324C643.597 185.619 644.296 186.653 645.228 187.426C646.171 188.187 647.353 188.568 648.773 188.568ZM677.942 193.511C675.329 193.511 673.085 192.938 671.21 191.79C669.346 190.642 667.908 189.057 666.897 187.034C665.897 185 665.397 182.659 665.397 180.011C665.397 177.352 665.908 175.006 666.931 172.972C667.954 170.926 669.397 169.335 671.261 168.199C673.136 167.051 675.352 166.477 677.908 166.477C680.033 166.477 681.914 166.869 683.55 167.653C685.198 168.426 686.511 169.523 687.488 170.943C688.465 172.352 689.022 174 689.158 175.886H683.261C683.022 174.625 682.454 173.574 681.556 172.733C680.67 171.881 679.482 171.455 677.994 171.455C676.732 171.455 675.624 171.795 674.67 172.477C673.715 173.148 672.971 174.114 672.437 175.375C671.914 176.636 671.653 178.148 671.653 179.909C671.653 181.693 671.914 183.227 672.437 184.511C672.96 185.784 673.692 186.767 674.636 187.46C675.59 188.142 676.71 188.483 677.994 188.483C678.903 188.483 679.715 188.312 680.431 187.972C681.158 187.619 681.766 187.114 682.255 186.455C682.744 185.795 683.079 184.994 683.261 184.051H689.158C689.011 185.903 688.465 187.545 687.522 188.977C686.579 190.398 685.295 191.511 683.67 192.318C682.045 193.114 680.136 193.511 677.942 193.511ZM710.913 181.989V166.818H717.083V193H711.1V188.347H710.827C710.237 189.812 709.265 191.011 707.913 191.943C706.572 192.875 704.918 193.341 702.952 193.341C701.237 193.341 699.719 192.96 698.401 192.199C697.094 191.426 696.072 190.307 695.333 188.841C694.594 187.364 694.225 185.58 694.225 183.489V166.818H700.396V182.534C700.396 184.193 700.85 185.511 701.759 186.489C702.668 187.466 703.862 187.955 705.339 187.955C706.248 187.955 707.129 187.733 707.981 187.29C708.833 186.847 709.532 186.188 710.077 185.312C710.634 184.426 710.913 183.318 710.913 181.989ZM723.428 193V166.818H729.326V171.267H729.633C730.178 169.767 731.082 168.597 732.343 167.756C733.604 166.903 735.11 166.477 736.86 166.477C738.633 166.477 740.127 166.909 741.343 167.773C742.57 168.625 743.434 169.79 743.934 171.267H744.207C744.786 169.812 745.763 168.653 747.138 167.79C748.525 166.915 750.167 166.477 752.065 166.477C754.474 166.477 756.44 167.239 757.962 168.761C759.485 170.284 760.246 172.506 760.246 175.426V193H754.059V176.381C754.059 174.756 753.627 173.568 752.763 172.818C751.9 172.057 750.843 171.676 749.593 171.676C748.104 171.676 746.94 172.142 746.099 173.074C745.269 173.994 744.854 175.193 744.854 176.67V193H738.803V176.125C738.803 174.773 738.394 173.693 737.576 172.886C736.769 172.08 735.712 171.676 734.406 171.676C733.519 171.676 732.712 171.903 731.985 172.358C731.258 172.801 730.678 173.432 730.246 174.25C729.815 175.057 729.599 176 729.599 177.08V193H723.428ZM778.097 193.511C775.472 193.511 773.205 192.966 771.296 191.875C769.398 190.773 767.938 189.216 766.915 187.205C765.893 185.182 765.381 182.801 765.381 180.062C765.381 177.369 765.893 175.006 766.915 172.972C767.95 170.926 769.393 169.335 771.245 168.199C773.097 167.051 775.273 166.477 777.773 166.477C779.387 166.477 780.91 166.739 782.342 167.261C783.785 167.773 785.058 168.568 786.16 169.648C787.273 170.727 788.148 172.102 788.785 173.773C789.421 175.432 789.739 177.409 789.739 179.705V181.597H768.279V177.438H783.825C783.813 176.256 783.558 175.205 783.058 174.284C782.558 173.352 781.859 172.619 780.961 172.085C780.075 171.551 779.04 171.284 777.859 171.284C776.597 171.284 775.489 171.591 774.535 172.205C773.58 172.807 772.836 173.602 772.302 174.591C771.779 175.568 771.512 176.642 771.501 177.812V181.443C771.501 182.966 771.779 184.273 772.336 185.364C772.893 186.443 773.671 187.273 774.671 187.852C775.671 188.42 776.842 188.705 778.183 188.705C779.08 188.705 779.893 188.58 780.62 188.33C781.347 188.068 781.978 187.688 782.512 187.188C783.046 186.688 783.45 186.068 783.722 185.33L789.484 185.977C789.12 187.5 788.427 188.83 787.404 189.966C786.393 191.091 785.097 191.966 783.518 192.591C781.938 193.205 780.131 193.511 778.097 193.511ZM801.13 177.659V193H794.96V166.818H800.857V171.267H801.164C801.766 169.801 802.727 168.636 804.045 167.773C805.374 166.909 807.016 166.477 808.971 166.477C810.778 166.477 812.352 166.864 813.692 167.636C815.045 168.409 816.09 169.528 816.829 170.994C817.579 172.46 817.948 174.239 817.937 176.33V193H811.766V177.284C811.766 175.534 811.312 174.165 810.403 173.176C809.505 172.187 808.261 171.693 806.67 171.693C805.59 171.693 804.63 171.932 803.789 172.409C802.96 172.875 802.306 173.551 801.829 174.438C801.363 175.324 801.13 176.398 801.13 177.659ZM837.283 166.818V171.591H822.232V166.818H837.283ZM825.948 160.545H832.119V185.125C832.119 185.955 832.244 186.591 832.494 187.034C832.755 187.466 833.096 187.761 833.516 187.92C833.937 188.08 834.403 188.159 834.914 188.159C835.3 188.159 835.653 188.131 835.971 188.074C836.3 188.017 836.55 187.966 836.721 187.92L837.761 192.744C837.431 192.858 836.96 192.983 836.346 193.119C835.744 193.256 835.005 193.335 834.13 193.358C832.585 193.403 831.192 193.17 829.954 192.659C828.715 192.136 827.732 191.33 827.005 190.239C826.289 189.148 825.937 187.784 825.948 186.148V160.545ZM849.978 193.528C848.319 193.528 846.825 193.233 845.495 192.642C844.177 192.04 843.131 191.153 842.359 189.983C841.597 188.812 841.217 187.369 841.217 185.653C841.217 184.176 841.489 182.955 842.035 181.989C842.58 181.023 843.325 180.25 844.268 179.67C845.211 179.091 846.273 178.653 847.455 178.358C848.648 178.051 849.881 177.83 851.154 177.693C852.688 177.534 853.933 177.392 854.887 177.267C855.842 177.131 856.535 176.926 856.967 176.653C857.41 176.369 857.631 175.932 857.631 175.341V175.239C857.631 173.955 857.251 172.96 856.489 172.256C855.728 171.551 854.631 171.199 853.2 171.199C851.688 171.199 850.489 171.528 849.603 172.188C848.728 172.847 848.137 173.625 847.83 174.523L842.069 173.705C842.523 172.114 843.273 170.784 844.319 169.716C845.364 168.636 846.643 167.83 848.154 167.295C849.665 166.75 851.336 166.477 853.165 166.477C854.427 166.477 855.683 166.625 856.933 166.92C858.183 167.216 859.325 167.705 860.359 168.386C861.393 169.057 862.222 169.972 862.847 171.131C863.484 172.29 863.802 173.739 863.802 175.477V193H857.87V189.403H857.665C857.29 190.131 856.762 190.812 856.08 191.449C855.41 192.074 854.563 192.58 853.54 192.966C852.529 193.341 851.342 193.528 849.978 193.528ZM851.58 188.994C852.819 188.994 853.893 188.75 854.802 188.261C855.711 187.761 856.41 187.102 856.898 186.284C857.398 185.466 857.648 184.574 857.648 183.608V180.523C857.455 180.682 857.126 180.83 856.66 180.966C856.205 181.102 855.694 181.222 855.126 181.324C854.558 181.426 853.995 181.517 853.438 181.597C852.881 181.676 852.398 181.744 851.989 181.801C851.069 181.926 850.245 182.131 849.518 182.415C848.79 182.699 848.217 183.097 847.796 183.608C847.376 184.108 847.165 184.756 847.165 185.551C847.165 186.688 847.58 187.545 848.41 188.125C849.239 188.705 850.296 188.994 851.58 188.994ZM883.08 166.818V171.591H868.029V166.818H883.08ZM871.745 160.545H877.915V185.125C877.915 185.955 878.04 186.591 878.29 187.034C878.552 187.466 878.893 187.761 879.313 187.92C879.734 188.08 880.2 188.159 880.711 188.159C881.097 188.159 881.45 188.131 881.768 188.074C882.097 188.017 882.347 187.966 882.518 187.92L883.558 192.744C883.228 192.858 882.756 192.983 882.143 193.119C881.54 193.256 880.802 193.335 879.927 193.358C878.381 193.403 876.989 193.17 875.751 192.659C874.512 192.136 873.529 191.33 872.802 190.239C872.086 189.148 871.734 187.784 871.745 186.148V160.545ZM888.241 193V166.818H894.411V193H888.241ZM891.343 163.102C890.366 163.102 889.525 162.778 888.82 162.131C888.116 161.472 887.763 160.682 887.763 159.761C887.763 158.83 888.116 158.04 888.82 157.392C889.525 156.733 890.366 156.403 891.343 156.403C892.332 156.403 893.173 156.733 893.866 157.392C894.57 158.04 894.923 158.83 894.923 159.761C894.923 160.682 894.57 161.472 893.866 162.131C893.173 162.778 892.332 163.102 891.343 163.102ZM912.177 193.511C909.62 193.511 907.404 192.949 905.529 191.824C903.654 190.699 902.2 189.125 901.165 187.102C900.143 185.08 899.631 182.716 899.631 180.011C899.631 177.307 900.143 174.937 901.165 172.903C902.2 170.869 903.654 169.29 905.529 168.165C907.404 167.04 909.62 166.477 912.177 166.477C914.734 166.477 916.95 167.04 918.825 168.165C920.7 169.29 922.148 170.869 923.171 172.903C924.205 174.937 924.722 177.307 924.722 180.011C924.722 182.716 924.205 185.08 923.171 187.102C922.148 189.125 920.7 190.699 918.825 191.824C916.95 192.949 914.734 193.511 912.177 193.511ZM912.211 188.568C913.597 188.568 914.756 188.187 915.688 187.426C916.62 186.653 917.313 185.619 917.768 184.324C918.234 183.028 918.467 181.585 918.467 179.994C918.467 178.392 918.234 176.943 917.768 175.648C917.313 174.341 916.62 173.301 915.688 172.528C914.756 171.756 913.597 171.369 912.211 171.369C910.79 171.369 909.609 171.756 908.665 172.528C907.734 173.301 907.035 174.341 906.569 175.648C906.114 176.943 905.887 178.392 905.887 179.994C905.887 181.585 906.114 183.028 906.569 184.324C907.035 185.619 907.734 186.653 908.665 187.426C909.609 188.187 910.79 188.568 912.211 188.568ZM936.13 177.659V193H929.96V166.818H935.857V171.267H936.164C936.766 169.801 937.727 168.636 939.045 167.773C940.374 166.909 942.016 166.477 943.971 166.477C945.778 166.477 947.352 166.864 948.692 167.636C950.045 168.409 951.09 169.528 951.829 170.994C952.579 172.46 952.948 174.239 952.937 176.33V193H946.766V177.284C946.766 175.534 946.312 174.165 945.403 173.176C944.505 172.187 943.261 171.693 941.67 171.693C940.59 171.693 939.63 171.932 938.789 172.409C937.96 172.875 937.306 173.551 936.829 174.438C936.363 175.324 936.13 176.398 936.13 177.659Z" fill="url(#paint18_linear_317_99156)"/>
<path opacity="0.8" d="M589.452 247L585.475 232.455H587.265L590.305 244.301H590.447L593.543 232.455H595.532L598.628 244.301H598.77L601.81 232.455H603.6L599.623 247H597.805L594.594 235.409H594.481L591.27 247H589.452ZM607.243 240.438V247H605.567V232.455H607.243V237.795H607.385C607.641 237.232 608.025 236.785 608.536 236.453C609.052 236.117 609.739 235.949 610.596 235.949C611.339 235.949 611.99 236.098 612.549 236.396C613.108 236.69 613.541 237.142 613.849 237.753C614.161 238.359 614.317 239.131 614.317 240.068V247H612.641V240.182C612.641 239.315 612.416 238.645 611.966 238.172C611.521 237.694 610.903 237.455 610.113 237.455C609.564 237.455 609.071 237.571 608.635 237.803C608.205 238.035 607.864 238.373 607.613 238.818C607.367 239.263 607.243 239.803 607.243 240.438ZM620.594 247.256C619.903 247.256 619.275 247.125 618.712 246.865C618.148 246.6 617.701 246.219 617.369 245.722C617.038 245.22 616.872 244.614 616.872 243.903C616.872 243.278 616.995 242.772 617.242 242.384C617.488 241.991 617.817 241.683 618.229 241.46C618.641 241.238 619.095 241.072 619.593 240.963C620.094 240.849 620.599 240.759 621.105 240.693C621.768 240.608 622.306 240.544 622.718 240.501C623.134 240.454 623.437 240.376 623.627 240.267C623.821 240.158 623.918 239.969 623.918 239.699V239.642C623.918 238.941 623.726 238.397 623.343 238.009C622.964 237.62 622.388 237.426 621.617 237.426C620.816 237.426 620.189 237.601 619.735 237.952C619.28 238.302 618.96 238.676 618.776 239.074L617.185 238.506C617.469 237.843 617.848 237.327 618.321 236.957C618.799 236.583 619.32 236.323 619.884 236.176C620.452 236.025 621.011 235.949 621.56 235.949C621.91 235.949 622.313 235.991 622.767 236.077C623.227 236.157 623.669 236.325 624.095 236.581C624.526 236.837 624.884 237.223 625.168 237.739C625.452 238.255 625.594 238.946 625.594 239.812V247H623.918V245.523H623.833C623.719 245.759 623.53 246.013 623.264 246.283C622.999 246.553 622.646 246.782 622.206 246.972C621.766 247.161 621.228 247.256 620.594 247.256ZM620.85 245.75C621.512 245.75 622.071 245.62 622.526 245.359C622.985 245.099 623.331 244.763 623.563 244.351C623.799 243.939 623.918 243.506 623.918 243.051V241.517C623.847 241.602 623.691 241.68 623.449 241.751C623.212 241.818 622.938 241.877 622.625 241.929C622.317 241.976 622.017 242.019 621.723 242.057C621.434 242.09 621.2 242.118 621.02 242.142C620.584 242.199 620.177 242.291 619.798 242.419C619.424 242.542 619.121 242.729 618.889 242.98C618.662 243.226 618.548 243.562 618.548 243.989C618.548 244.571 618.764 245.011 619.195 245.31C619.63 245.603 620.182 245.75 620.85 245.75ZM633.398 236.091V237.511H627.744V236.091H633.398ZM629.392 233.477H631.068V243.875C631.068 244.348 631.137 244.704 631.274 244.94C631.416 245.172 631.596 245.329 631.814 245.409C632.036 245.485 632.271 245.523 632.517 245.523C632.702 245.523 632.853 245.513 632.971 245.494C633.09 245.471 633.184 245.452 633.256 245.438L633.596 246.943C633.483 246.986 633.324 247.028 633.121 247.071C632.917 247.118 632.659 247.142 632.346 247.142C631.873 247.142 631.409 247.04 630.954 246.837C630.505 246.633 630.131 246.323 629.832 245.906C629.539 245.49 629.392 244.964 629.392 244.33V233.477ZM645.976 247.227C644.953 247.227 644.072 246.986 643.334 246.503C642.595 246.02 642.027 245.355 641.629 244.507C641.231 243.66 641.032 242.691 641.032 241.602C641.032 240.494 641.236 239.517 641.643 238.669C642.055 237.817 642.628 237.152 643.362 236.673C644.101 236.19 644.962 235.949 645.947 235.949C646.714 235.949 647.406 236.091 648.021 236.375C648.637 236.659 649.141 237.057 649.534 237.568C649.927 238.08 650.171 238.676 650.265 239.358H648.589C648.461 238.861 648.177 238.42 647.737 238.037C647.301 237.649 646.714 237.455 645.976 237.455C645.322 237.455 644.749 237.625 644.257 237.966C643.769 238.302 643.388 238.778 643.113 239.393C642.844 240.004 642.709 240.722 642.709 241.545C642.709 242.388 642.841 243.122 643.106 243.747C643.376 244.372 643.755 244.857 644.243 245.203C644.735 245.549 645.313 245.722 645.976 245.722C646.411 245.722 646.807 245.646 647.162 245.494C647.517 245.343 647.818 245.125 648.064 244.841C648.31 244.557 648.485 244.216 648.589 243.818H650.265C650.171 244.462 649.936 245.042 649.562 245.558C649.193 246.07 648.703 246.477 648.092 246.78C647.486 247.078 646.781 247.227 645.976 247.227ZM655.926 247.256C655.235 247.256 654.607 247.125 654.044 246.865C653.48 246.6 653.033 246.219 652.702 245.722C652.37 245.22 652.204 244.614 652.204 243.903C652.204 243.278 652.327 242.772 652.574 242.384C652.82 241.991 653.149 241.683 653.561 241.46C653.973 241.238 654.427 241.072 654.925 240.963C655.426 240.849 655.931 240.759 656.437 240.693C657.1 240.608 657.638 240.544 658.05 240.501C658.466 240.454 658.769 240.376 658.959 240.267C659.153 240.158 659.25 239.969 659.25 239.699V239.642C659.25 238.941 659.058 238.397 658.675 238.009C658.296 237.62 657.72 237.426 656.949 237.426C656.148 237.426 655.521 237.601 655.067 237.952C654.612 238.302 654.292 238.676 654.108 239.074L652.517 238.506C652.801 237.843 653.18 237.327 653.653 236.957C654.131 236.583 654.652 236.323 655.216 236.176C655.784 236.025 656.343 235.949 656.892 235.949C657.242 235.949 657.645 235.991 658.099 236.077C658.559 236.157 659.001 236.325 659.427 236.581C659.858 236.837 660.216 237.223 660.5 237.739C660.784 238.255 660.926 238.946 660.926 239.812V247H659.25V245.523H659.165C659.051 245.759 658.862 246.013 658.596 246.283C658.331 246.553 657.979 246.782 657.538 246.972C657.098 247.161 656.56 247.256 655.926 247.256ZM656.182 245.75C656.845 245.75 657.403 245.62 657.858 245.359C658.317 245.099 658.663 244.763 658.895 244.351C659.131 243.939 659.25 243.506 659.25 243.051V241.517C659.179 241.602 659.023 241.68 658.781 241.751C658.544 241.818 658.27 241.877 657.957 241.929C657.649 241.976 657.349 242.019 657.055 242.057C656.766 242.09 656.532 242.118 656.352 242.142C655.916 242.199 655.509 242.291 655.131 242.419C654.756 242.542 654.453 242.729 654.221 242.98C653.994 243.226 653.881 243.562 653.881 243.989C653.881 244.571 654.096 245.011 654.527 245.31C654.962 245.603 655.514 245.75 656.182 245.75ZM665.661 240.438V247H663.985V236.091H665.605V237.795H665.747C666.002 237.241 666.391 236.796 666.911 236.46C667.432 236.119 668.105 235.949 668.928 235.949C669.667 235.949 670.313 236.1 670.867 236.403C671.421 236.702 671.852 237.156 672.16 237.767C672.468 238.373 672.622 239.14 672.622 240.068V247H670.945V240.182C670.945 239.325 670.723 238.657 670.278 238.179C669.833 237.696 669.222 237.455 668.445 237.455C667.91 237.455 667.432 237.571 667.011 237.803C666.594 238.035 666.265 238.373 666.024 238.818C665.782 239.263 665.661 239.803 665.661 240.438ZM683.781 247L680.457 236.091H682.219L684.577 244.443H684.69L687.02 236.091H688.809L691.111 244.415H691.224L693.582 236.091H695.344L692.02 247H690.372L687.986 238.619H687.815L685.429 247H683.781ZM701.762 247.227C700.711 247.227 699.804 246.995 699.042 246.531C698.285 246.062 697.7 245.409 697.288 244.571C696.881 243.728 696.677 242.748 696.677 241.631C696.677 240.513 696.881 239.528 697.288 238.676C697.7 237.819 698.273 237.152 699.007 236.673C699.745 236.19 700.607 235.949 701.592 235.949C702.16 235.949 702.721 236.044 703.275 236.233C703.829 236.422 704.333 236.73 704.788 237.156C705.242 237.578 705.605 238.136 705.874 238.832C706.144 239.528 706.279 240.385 706.279 241.403V242.114H697.87V240.665H704.575C704.575 240.049 704.452 239.5 704.205 239.017C703.964 238.534 703.618 238.153 703.169 237.874C702.723 237.594 702.198 237.455 701.592 237.455C700.924 237.455 700.347 237.62 699.859 237.952C699.376 238.278 699.004 238.705 698.744 239.23C698.483 239.756 698.353 240.319 698.353 240.92V241.886C698.353 242.71 698.495 243.409 698.779 243.982C699.068 244.55 699.468 244.983 699.98 245.281C700.491 245.575 701.085 245.722 701.762 245.722C702.203 245.722 702.6 245.66 702.955 245.537C703.315 245.409 703.625 245.22 703.886 244.969C704.146 244.713 704.347 244.396 704.49 244.017L706.109 244.472C705.938 245.021 705.652 245.504 705.249 245.92C704.847 246.332 704.35 246.654 703.758 246.886C703.166 247.114 702.501 247.227 701.762 247.227ZM716.13 240.438V247H714.454V232.455H716.13V237.795H716.272C716.528 237.232 716.911 236.785 717.423 236.453C717.939 236.117 718.625 235.949 719.482 235.949C720.226 235.949 720.877 236.098 721.436 236.396C721.994 236.69 722.427 237.142 722.735 237.753C723.048 238.359 723.204 239.131 723.204 240.068V247H721.528V240.182C721.528 239.315 721.303 238.645 720.853 238.172C720.408 237.694 719.79 237.455 718.999 237.455C718.45 237.455 717.958 237.571 717.522 237.803C717.091 238.035 716.75 238.373 716.499 238.818C716.253 239.263 716.13 239.803 716.13 240.438ZM730.844 247.227C729.793 247.227 728.886 246.995 728.124 246.531C727.367 246.062 726.782 245.409 726.37 244.571C725.963 243.728 725.759 242.748 725.759 241.631C725.759 240.513 725.963 239.528 726.37 238.676C726.782 237.819 727.355 237.152 728.089 236.673C728.827 236.19 729.689 235.949 730.674 235.949C731.242 235.949 731.803 236.044 732.357 236.233C732.911 236.422 733.415 236.73 733.87 237.156C734.324 237.578 734.687 238.136 734.956 238.832C735.226 239.528 735.361 240.385 735.361 241.403V242.114H726.952V240.665H733.657C733.657 240.049 733.534 239.5 733.287 239.017C733.046 238.534 732.7 238.153 732.251 237.874C731.805 237.594 731.28 237.455 730.674 237.455C730.006 237.455 729.429 237.62 728.941 237.952C728.458 238.278 728.086 238.705 727.826 239.23C727.565 239.756 727.435 240.319 727.435 240.92V241.886C727.435 242.71 727.577 243.409 727.861 243.982C728.15 244.55 728.55 244.983 729.062 245.281C729.573 245.575 730.167 245.722 730.844 245.722C731.285 245.722 731.682 245.66 732.037 245.537C732.397 245.409 732.707 245.22 732.968 244.969C733.228 244.713 733.43 244.396 733.572 244.017L735.191 244.472C735.02 245.021 734.734 245.504 734.331 245.92C733.929 246.332 733.432 246.654 732.84 246.886C732.248 247.114 731.583 247.227 730.844 247.227ZM739.587 232.455V247H737.911V232.455H739.587ZM742.657 251.091V236.091H744.276V237.824H744.475C744.598 237.634 744.769 237.393 744.987 237.099C745.209 236.801 745.526 236.536 745.938 236.304C746.355 236.067 746.919 235.949 747.629 235.949C748.547 235.949 749.357 236.179 750.058 236.638C750.758 237.097 751.305 237.748 751.698 238.591C752.091 239.434 752.288 240.428 752.288 241.574C752.288 242.729 752.091 243.731 751.698 244.578C751.305 245.421 750.761 246.074 750.065 246.538C749.369 246.998 748.566 247.227 747.657 247.227C746.956 247.227 746.395 247.111 745.974 246.879C745.552 246.643 745.228 246.375 745.001 246.077C744.774 245.774 744.598 245.523 744.475 245.324H744.333V251.091H742.657ZM744.305 241.545C744.305 242.369 744.426 243.096 744.667 243.726C744.909 244.351 745.261 244.841 745.725 245.196C746.189 245.546 746.758 245.722 747.43 245.722C748.131 245.722 748.715 245.537 749.184 245.168C749.658 244.794 750.013 244.292 750.249 243.662C750.491 243.027 750.612 242.322 750.612 241.545C750.612 240.778 750.493 240.087 750.257 239.472C750.025 238.851 749.672 238.361 749.198 238.001C748.73 237.637 748.14 237.455 747.43 237.455C746.748 237.455 746.175 237.627 745.711 237.973C745.247 238.314 744.897 238.792 744.66 239.408C744.423 240.018 744.305 240.731 744.305 241.545ZM761.549 251.091C761.265 251.091 761.012 251.067 760.789 251.02C760.567 250.977 760.413 250.935 760.328 250.892L760.754 249.415C761.161 249.519 761.521 249.557 761.833 249.528C762.146 249.5 762.423 249.36 762.664 249.109C762.91 248.863 763.135 248.463 763.339 247.909L763.651 247.057L759.617 236.091H761.436L764.447 244.784H764.561L767.572 236.091H769.39L764.759 248.591C764.551 249.154 764.293 249.621 763.985 249.99C763.677 250.364 763.32 250.641 762.913 250.821C762.51 251.001 762.056 251.091 761.549 251.091ZM775.644 247.227C774.659 247.227 773.795 246.993 773.051 246.524C772.313 246.055 771.735 245.4 771.318 244.557C770.906 243.714 770.7 242.729 770.7 241.602C770.7 240.466 770.906 239.474 771.318 238.626C771.735 237.779 772.313 237.121 773.051 236.652C773.795 236.183 774.659 235.949 775.644 235.949C776.628 235.949 777.49 236.183 778.229 236.652C778.972 237.121 779.55 237.779 779.962 238.626C780.378 239.474 780.587 240.466 780.587 241.602C780.587 242.729 780.378 243.714 779.962 244.557C779.55 245.4 778.972 246.055 778.229 246.524C777.49 246.993 776.628 247.227 775.644 247.227ZM775.644 245.722C776.392 245.722 777.007 245.53 777.49 245.146C777.973 244.763 778.331 244.259 778.563 243.634C778.795 243.009 778.911 242.331 778.911 241.602C778.911 240.873 778.795 240.194 778.563 239.564C778.331 238.934 777.973 238.425 777.49 238.037C777.007 237.649 776.392 237.455 775.644 237.455C774.896 237.455 774.28 237.649 773.797 238.037C773.314 238.425 772.957 238.934 772.725 239.564C772.493 240.194 772.377 240.873 772.377 241.602C772.377 242.331 772.493 243.009 772.725 243.634C772.957 244.259 773.314 244.763 773.797 245.146C774.28 245.53 774.896 245.722 775.644 245.722ZM790.02 242.54V236.091H791.697V247H790.02V245.153H789.907C789.651 245.707 789.253 246.179 788.714 246.567C788.174 246.95 787.492 247.142 786.668 247.142C785.986 247.142 785.38 246.993 784.85 246.695C784.32 246.392 783.903 245.937 783.6 245.331C783.297 244.72 783.145 243.951 783.145 243.023V236.091H784.822V242.909C784.822 243.705 785.044 244.339 785.489 244.812C785.939 245.286 786.512 245.523 787.208 245.523C787.625 245.523 788.048 245.416 788.479 245.203C788.915 244.99 789.279 244.663 789.573 244.223C789.871 243.783 790.02 243.222 790.02 242.54ZM800.619 247V232.455H802.295V237.824H802.437C802.56 237.634 802.731 237.393 802.948 237.099C803.171 236.801 803.488 236.536 803.9 236.304C804.317 236.067 804.88 235.949 805.59 235.949C806.509 235.949 807.319 236.179 808.019 236.638C808.72 237.097 809.267 237.748 809.66 238.591C810.053 239.434 810.249 240.428 810.249 241.574C810.249 242.729 810.053 243.731 809.66 244.578C809.267 245.421 808.722 246.074 808.026 246.538C807.33 246.998 806.528 247.227 805.619 247.227C804.918 247.227 804.357 247.111 803.936 246.879C803.514 246.643 803.19 246.375 802.963 246.077C802.735 245.774 802.56 245.523 802.437 245.324H802.238V247H800.619ZM802.267 241.545C802.267 242.369 802.387 243.096 802.629 243.726C802.87 244.351 803.223 244.841 803.687 245.196C804.151 245.546 804.719 245.722 805.392 245.722C806.092 245.722 806.677 245.537 807.146 245.168C807.619 244.794 807.974 244.292 808.211 243.662C808.453 243.027 808.573 242.322 808.573 241.545C808.573 240.778 808.455 240.087 808.218 239.472C807.986 238.851 807.633 238.361 807.16 238.001C806.691 237.637 806.102 237.455 805.392 237.455C804.71 237.455 804.137 237.627 803.673 237.973C803.209 238.314 802.858 238.792 802.622 239.408C802.385 240.018 802.267 240.731 802.267 241.545ZM819.688 242.54V236.091H821.365V247H819.688V245.153H819.575C819.319 245.707 818.921 246.179 818.382 246.567C817.842 246.95 817.16 247.142 816.336 247.142C815.654 247.142 815.048 246.993 814.518 246.695C813.988 246.392 813.571 245.937 813.268 245.331C812.965 244.72 812.813 243.951 812.813 243.023V236.091H814.49V242.909C814.49 243.705 814.712 244.339 815.157 244.812C815.607 245.286 816.18 245.523 816.876 245.523C817.293 245.523 817.716 245.416 818.147 245.203C818.583 244.99 818.947 244.663 819.241 244.223C819.539 243.783 819.688 243.222 819.688 242.54ZM824.434 247V236.091H826.111V247H824.434ZM825.287 234.273C824.96 234.273 824.678 234.161 824.442 233.939C824.21 233.716 824.094 233.449 824.094 233.136C824.094 232.824 824.21 232.556 824.442 232.334C824.678 232.111 824.96 232 825.287 232C825.613 232 825.893 232.111 826.125 232.334C826.362 232.556 826.48 232.824 826.48 233.136C826.48 233.449 826.362 233.716 826.125 233.939C825.893 234.161 825.613 234.273 825.287 234.273ZM830.857 232.455V247H829.181V232.455H830.857ZM838.046 247.227C837.137 247.227 836.334 246.998 835.638 246.538C834.942 246.074 834.398 245.421 834.005 244.578C833.612 243.731 833.415 242.729 833.415 241.574C833.415 240.428 833.612 239.434 834.005 238.591C834.398 237.748 834.945 237.097 835.645 236.638C836.346 236.179 837.156 235.949 838.074 235.949C838.785 235.949 839.346 236.067 839.758 236.304C840.174 236.536 840.492 236.801 840.709 237.099C840.932 237.393 841.105 237.634 841.228 237.824H841.37V232.455H843.046V247H841.427V245.324H841.228C841.105 245.523 840.93 245.774 840.702 246.077C840.475 246.375 840.151 246.643 839.729 246.879C839.308 247.111 838.747 247.227 838.046 247.227ZM838.273 245.722C838.946 245.722 839.514 245.546 839.978 245.196C840.442 244.841 840.795 244.351 841.036 243.726C841.278 243.096 841.398 242.369 841.398 241.545C841.398 240.731 841.28 240.018 841.043 239.408C840.806 238.792 840.456 238.314 839.992 237.973C839.528 237.627 838.955 237.455 838.273 237.455C837.563 237.455 836.971 237.637 836.498 238.001C836.029 238.361 835.676 238.851 835.439 239.472C835.207 240.087 835.091 240.778 835.091 241.545C835.091 242.322 835.21 243.027 835.447 243.662C835.688 244.292 836.043 244.794 836.512 245.168C836.985 245.537 837.573 245.722 838.273 245.722ZM848.536 242.909V242.824C848.546 241.92 848.64 241.2 848.82 240.665C849 240.13 849.256 239.696 849.587 239.365C849.919 239.034 850.316 238.728 850.78 238.449C851.06 238.278 851.311 238.077 851.533 237.845C851.756 237.608 851.931 237.336 852.059 237.028C852.191 236.721 852.258 236.38 852.258 236.006C852.258 235.542 852.149 235.139 851.931 234.798C851.713 234.457 851.422 234.195 851.057 234.01C850.693 233.825 850.288 233.733 849.843 233.733C849.455 233.733 849.081 233.813 848.721 233.974C848.361 234.135 848.06 234.389 847.819 234.734C847.577 235.08 847.438 235.532 847.4 236.091H845.61C845.648 235.286 845.856 234.597 846.235 234.024C846.618 233.451 847.123 233.013 847.748 232.71C848.377 232.407 849.076 232.256 849.843 232.256C850.676 232.256 851.401 232.421 852.016 232.753C852.636 233.084 853.115 233.539 853.451 234.116C853.792 234.694 853.962 235.352 853.962 236.091C853.962 236.612 853.882 237.083 853.721 237.504C853.564 237.926 853.337 238.302 853.039 238.634C852.745 238.965 852.39 239.259 851.974 239.514C851.557 239.775 851.223 240.049 850.972 240.338C850.721 240.622 850.539 240.961 850.425 241.354C850.312 241.747 850.25 242.237 850.241 242.824V242.909H848.536ZM849.445 247.114C849.095 247.114 848.794 246.988 848.543 246.737C848.292 246.486 848.167 246.186 848.167 245.835C848.167 245.485 848.292 245.184 848.543 244.933C848.794 244.682 849.095 244.557 849.445 244.557C849.796 244.557 850.096 244.682 850.347 244.933C850.598 245.184 850.724 245.485 850.724 245.835C850.724 246.067 850.664 246.28 850.546 246.474C850.432 246.669 850.278 246.825 850.084 246.943C849.895 247.057 849.682 247.114 849.445 247.114Z" fill="#DFFBFF"/>
</g>
<defs>
<filter id="filter0_f_317_99156" x="99" y="150" width="1180" height="1106" filterUnits="userSpaceOnUse" color-interpolation-filters="sRGB">
<feFlood flood-opacity="0" result="BackgroundImageFix"/>
<feBlend mode="normal" in="SourceGraphic" in2="BackgroundImageFix" result="shape"/>
<feGaussianBlur stdDeviation="60" result="effect1_foregroundBlur_317_99156"/>
</filter>
<filter id="filter1_f_317_99156" x="424" y="233" width="592" height="474" filterUnits="userSpaceOnUse" color-interpolation-filters="sRGB">
<feFlood flood-opacity="0" result="BackgroundImageFix"/>
<feBlend mode="normal" in="SourceGraphic" in2="BackgroundImageFix" result="shape"/>
<feGaussianBlur stdDeviation="60" result="effect1_foregroundBlur_317_99156"/>
</filter>
<filter id="filter2_f_317_99156" x="311" y="-514" width="819" height="719" filterUnits="userSpaceOnUse" color-interpolation-filters="sRGB">
<feFlood flood-opacity="0" result="BackgroundImageFix"/>
<feBlend mode="normal" in="SourceGraphic" in2="BackgroundImageFix" result="shape"/>
<feGaussianBlur stdDeviation="60" result="effect1_foregroundBlur_317_99156"/>
</filter>
<filter id="filter3_f_317_99156" x="448" y="-300" width="544" height="474" filterUnits="userSpaceOnUse" color-interpolation-filters="sRGB">
<feFlood flood-opacity="0" result="BackgroundImageFix"/>
<feBlend mode="normal" in="SourceGraphic" in2="BackgroundImageFix" result="shape"/>
<feGaussianBlur stdDeviation="60" result="effect1_foregroundBlur_317_99156"/>
</filter>
<linearGradient id="paint0_linear_317_99156" x1="2.14577e-05" y1="400" x2="1170.25" y2="-396.387" gradientUnits="userSpaceOnUse">
<stop offset="0.335131" stop-color="white"/>
<stop offset="1" stop-color="#E6F8F3"/>
</linearGradient>
<linearGradient id="paint1_linear_317_99156" x1="720" y1="0" x2="720" y2="400" gradientUnits="userSpaceOnUse">
<stop stop-color="#3064E3" stop-opacity="0.25"/>
<stop offset="1" stop-color="#304BE3" stop-opacity="0.15"/>
</linearGradient>
<linearGradient id="paint2_linear_317_99156" x1="1159" y1="734.153" x2="380.058" y2="862.689" gradientUnits="userSpaceOnUse">
<stop stop-color="#CAECF1"/>
<stop offset="1" stop-color="#00B0BB"/>
</linearGradient>
<radialGradient id="paint3_radial_317_99156" cx="0" cy="0" r="1" gradientUnits="userSpaceOnUse" gradientTransform="translate(560 571.045) rotate(-37.5236) scale(393.551 428.294)">
<stop stop-color="#00BBBB"/>
<stop offset="0.712616" stop-color="#00DB65"/>
</radialGradient>
<linearGradient id="paint4_linear_317_99156" x1="919.885" y1="-163.474" x2="553.564" y2="17.9329" gradientUnits="userSpaceOnUse">
<stop stop-color="#CAECF1" stop-opacity="0.5"/>
<stop offset="1" stop-color="#00B0BB"/>
</linearGradient>
<radialGradient id="paint5_radial_317_99156" cx="0" cy="0" r="1" gradientUnits="userSpaceOnUse" gradientTransform="translate(581.818 38.0455) rotate(-41.6448) scale(360.727 403.548)">
<stop stop-color="#00BBBB"/>
<stop offset="0.712616" stop-color="#00DB65"/>
</radialGradient>
<radialGradient id="paint6_radial_317_99156" cx="0" cy="0" r="1" gradientUnits="userSpaceOnUse" gradientTransform="translate(720 411.032) rotate(-90) scale(151.125 1158)">
<stop stop-color="#A6D8DD" stop-opacity="0.7"/>
<stop offset="0.25" stop-color="#A6D8DD" stop-opacity="0.58"/>
<stop offset="0.5" stop-color="#A6D8DD" stop-opacity="0.23"/>
<stop offset="0.75" stop-color="#A6D8DD" stop-opacity="0.05"/>
<stop offset="1" stop-color="#A6D8DD" stop-opacity="0"/>
</radialGradient>
<radialGradient id="paint7_angular_317_99156" cx="0" cy="0" r="1" gradientUnits="userSpaceOnUse" gradientTransform="translate(1205.38 312.736) rotate(132.997) scale(55.7212 59.0524)">
<stop stop-color="#C2E6EB" stop-opacity="0"/>
<stop offset="0.0001" stop-color="#C2E6EB"/>
<stop offset="0.144249" stop-color="#C2E6EB" stop-opacity="0"/>
</radialGradient>
<radialGradient id="paint8_angular_317_99156" cx="0" cy="0" r="1" gradientUnits="userSpaceOnUse" gradientTransform="translate(597.384 273.116) rotate(90) scale(76 76)">
<stop stop-color="#C2E6EB" stop-opacity="0"/>
<stop offset="0.0001" stop-color="#C2E6EB"/>
<stop offset="0.177696" stop-color="#C2E6EB" stop-opacity="0"/>
</radialGradient>
<radialGradient id="paint9_angular_317_99156" cx="0" cy="0" r="1" gradientUnits="userSpaceOnUse" gradientTransform="translate(775.384 302.17) rotate(-19.9131) scale(53.1796 43.6529)">
<stop stop-color="#C2E6EB" stop-opacity="0"/>
<stop offset="0.0001" stop-color="#C2E6EB"/>
<stop offset="0.162031" stop-color="#C2E6EB" stop-opacity="0"/>
</radialGradient>
<radialGradient id="paint10_angular_317_99156" cx="0" cy="0" r="1" gradientUnits="userSpaceOnUse" gradientTransform="translate(389.384 315) rotate(-142.442) scale(66.857 64.6251)">
<stop stop-color="#C2E6EB" stop-opacity="0"/>
<stop offset="0.0001" stop-color="#C2E6EB"/>
<stop offset="0.192905" stop-color="#C2E6EB" stop-opacity="0"/>
</radialGradient>
<radialGradient id="paint11_angular_317_99156" cx="0" cy="0" r="1" gradientUnits="userSpaceOnUse" gradientTransform="translate(967.384 409.198) rotate(-90) scale(130 130)">
<stop stop-color="#C2E6EB" stop-opacity="0"/>
<stop offset="0.0001" stop-color="#C2E6EB"/>
<stop offset="0.1731" stop-color="#C2E6EB" stop-opacity="0"/>
</radialGradient>
<radialGradient id="paint12_angular_317_99156" cx="0" cy="0" r="1" gradientUnits="userSpaceOnUse" gradientTransform="translate(509.384 401.79) rotate(-148.946) scale(109.726 99.4628)">
<stop stop-color="#C2E6EB" stop-opacity="0"/>
<stop offset="0.0001" stop-color="#C2E6EB"/>
<stop offset="0.1731" stop-color="#C2E6EB" stop-opacity="0"/>
</radialGradient>
<radialGradient id="paint13_radial_317_99156" cx="0" cy="0" r="1" gradientUnits="userSpaceOnUse" gradientTransform="translate(720 -10.2793) rotate(90) scale(151.125 881)">
<stop stop-color="#A6D8DD" stop-opacity="0.7"/>
<stop offset="0.25" stop-color="#A6D8DD" stop-opacity="0.58"/>
<stop offset="0.5" stop-color="#A6D8DD" stop-opacity="0.23"/>
<stop offset="0.75" stop-color="#A6D8DD" stop-opacity="0.05"/>
<stop offset="1" stop-color="#A6D8DD" stop-opacity="0"/>
</radialGradient>
<radialGradient id="paint14_angular_317_99156" cx="0" cy="0" r="1" gradientUnits="userSpaceOnUse" gradientTransform="translate(713 -26) rotate(94.9342) scale(139.517 139.517)">
<stop stop-color="#C2E6EB" stop-opacity="0"/>
<stop offset="0.0001" stop-color="#C2E6EB"/>
<stop offset="0.1731" stop-color="#C2E6EB" stop-opacity="0"/>
</radialGradient>
<radialGradient id="paint15_angular_317_99156" cx="0" cy="0" r="1" gradientUnits="userSpaceOnUse" gradientTransform="translate(991 44) rotate(-148.173) scale(102.396 75.6363)">
<stop stop-color="#C2E6EB" stop-opacity="0"/>
<stop offset="0.0001" stop-color="#C2E6EB"/>
<stop offset="0.116508" stop-color="#C2E6EB" stop-opacity="0"/>
</radialGradient>
<radialGradient id="paint16_angular_317_99156" cx="0" cy="0" r="1" gradientUnits="userSpaceOnUse" gradientTransform="translate(624 51) rotate(149.281) scale(80.2621 82.3165)">
<stop stop-color="#C2E6EB" stop-opacity="0"/>
<stop offset="0.0001" stop-color="#C2E6EB"/>
<stop offset="0.1731" stop-color="#C2E6EB" stop-opacity="0"/>
</radialGradient>
<radialGradient id="paint17_angular_317_99156" cx="0" cy="0" r="1" gradientUnits="userSpaceOnUse" gradientTransform="translate(425.004 -1.03743) rotate(156.729) scale(143.265 106.657)">
<stop stop-color="#C2E6EB" stop-opacity="0"/>
<stop offset="0.0001" stop-color="#C2E6EB"/>
<stop offset="0.1731" stop-color="#C2E6EB" stop-opacity="0"/>
</radialGradient>
<linearGradient id="paint18_linear_317_99156" x1="720" y1="161" x2="720" y2="193" gradientUnits="userSpaceOnUse">
<stop offset="0.218751" stop-color="#E8FCFF"/>
<stop offset="1" stop-color="#D0F9FF"/>
</linearGradient>
<clipPath id="clip0_317_99156">
<rect width="1440" height="400" fill="white"/>
</clipPath>
</defs>
</svg>
